<svg xmlns="http://www.w3.org/2000/svg" data-name="Layer 1" viewBox="0 0 512 512"><path d="M164.06,30a7.5,7.5,0,1,0,7.5,7.5A7.5,7.5,0,0,0,164.06,30Zm-30,0a7.5,7.5,0,1,0,7.5,7.5A7.5,7.5,0,0,0,134.06,30ZM445.64,227V37.5A37.54,37.54,0,0,0,408.14,0H103.86a37.54,37.54,0,0,0-37.5,37.5V167A37.56,37.56,0,0,0,37.5,203.5v271A37.54,37.54,0,0,0,75,512H437a37.54,37.54,0,0,0,37.5-37.5v-211A37.56,37.56,0,0,0,445.64,227ZM81.36,37.5A22.52,22.52,0,0,1,103.86,15H408.14a22.52,22.52,0,0,1,22.5,22.5V67.11H81.36Zm0,44.61H430.64V226H309.19a22.61,22.61,0,0,1-16.11-6.79l-40.88-41.9A37.72,37.72,0,0,0,225.36,166h-144ZM459.5,474.5A22.52,22.52,0,0,1,437,497H75a22.52,22.52,0,0,1-22.5-22.5V297.75h407Zm0-191.75H52.5V203.5A22.52,22.52,0,0,1,75,181H225.36a22.61,22.61,0,0,1,16.1,6.79l40.89,41.9A37.69,37.69,0,0,0,309.19,241H437a22.52,22.52,0,0,1,22.5,22.5ZM104.06,30a7.5,7.5,0,1,0,7.5,7.5A7.5,7.5,0,0,0,104.06,30ZM393.14,157.11H298.86a7.5,7.5,0,0,0,0,15h94.28a7.5,7.5,0,0,0,0-15ZM190,477.85H322a19,19,0,0,0,19-19v-93.7a19,19,0,0,0-19-19H303.71v-7.73a20.25,20.25,0,0,0-20.23-20.23h-55a20.25,20.25,0,0,0-20.23,20.23v7.73H190a19,19,0,0,0-19,19v93.7A19,19,0,0,0,190,477.85Zm33.28-139.47a5.23,5.23,0,0,1,5.23-5.23h55a5.23,5.23,0,0,1,5.23,5.23v7.73H223.29ZM186,365.13a4,4,0,0,1,4-4H322a4,4,0,0,1,4,4V384l-49.18,24.54a14.49,14.49,0,0,0-12.15-6.62H247.32a14.49,14.49,0,0,0-12.15,6.62L186,384Zm78.19,51.79v16.35H247.82V416.92ZM186,400.76l46.83,23.37v9.64a14.52,14.52,0,0,0,14.5,14.5h17.36a14.52,14.52,0,0,0,14.5-14.5v-9.64L326,400.76v58.07a4,4,0,0,1-4,4H190a4,4,0,0,1-4-4ZM118.86,112.11H393.14a7.5,7.5,0,0,0,0-15H118.86a7.5,7.5,0,0,0,0,15Zm281.78,22.5a7.5,7.5,0,0,0-7.5-7.5H118.86a7.5,7.5,0,0,0,0,15H393.14A7.5,7.5,0,0,0,400.64,134.61Z"/></svg>